<?xml version="1.0" encoding="UTF-8"?>
<svg id="Layer_1" data-name="Layer 1" xmlns="http://www.w3.org/2000/svg" viewBox="0 0 584.36 188.76">
  <defs>
    <style>
      .cls-1 {
        fill: #fff;
      }
    </style>
  </defs>
  <path class="cls-1" d="M228.81,57.53c-.63.21-1.23.59-1.75,1.02-4.06,3.34-6.77,6.09-11.77,10.49-.32.36-.65.7-1,1.02-.29.26-.62.48-1.32,1,1.69-3.98,1.81-7.76,2.01-11.48.12-2.22-.11-4.44-.76-6.57-1.02-3.37-2.5-5.96-5.27-8.09-2.22-1.7-5.61-2.55-8.52-2.15-6.14.83-10.98,3.95-15.06,8.38-3.02,3.28-5.53,6.97-7.63,10.88-2.81,5.23-5.44,10.56-8.15,15.84-.28.55-.58,1.1-.88,1.65l-.41-.17c.43-2.2.99-4.38,1.27-6.6.78-6.02,1.54-12.05,2.1-18.09.18-2,.17-3.47-.5-6.08-.51-2.47-2.7-3.45-5.07-2.47-2.36.97-3.94,2.73-4.58,5.18-.8,3.03-1.66,6.08-2.11,9.17h0c-1.89,7.36-2,7.36-5.62,13.42-.77,1.29-1.74,2.46-2.54,3.74-2.68,4.28-5.32,8.59-7.97,12.89-1.41,2.29-3,4.42-5.37,5.81-1.06.62-2.46.1-2.79-1.09-.2-.72-.29-1.48-.32-2.5-.26-8.05.61-15.95,3.06-23.64,1.09-3.41,1.58-6.89,1.82-10.45.13-1.97-.29-3.79-.91-5.59-.66-1.9-2.67-2.98-4.62-2.49-1.36.35-2.55,1-3.53,2.08-2.41,2.66-3.57,5.61-4.59,8.55-.6,1.75-1.06,3.54-1.36,5.37-.07.45-.18.86-.27,1.48-.11.69-.33,1.99-.41,2.68-.11.92-.42,2.65-.61,5.57-1.22,2.61-2.49,5.2-3.89,7.7-3.58,6.43-8.33,12.02-13.99,16.76-.87.73-1.76,1.46-2.71,2.11-2.63,1.79-6.34-.03-6.4-3.21h0c-.03-.67-.08-1.34-.08-2.01.06-6.57,1.5-12.29,3.14-18.65,2.22-8.59,5.12-17,7.7-25.5.53-1.75,1.46-4.6,2.09-6.32,3.55-9.69,7.15-19.36,10.68-29.07,1.26-3.46,2.93-7.79,3.04-11.52.05-1.68-.11-2.31-.55-4.07-.3-1.48-2.26-2.47-3.74-2.53-1.19-.05-2,.03-3.09.45-1.95.75-3.84,2.65-4.83,4.5-1.41,2.64-3.07,6.31-3.96,9.14-2.83,8.9-4.62,13.87-7.71,23.56-1.72,6.38-3.74,12.4-5.73,18.71-2.17,6.89-5.39,19.16-6.05,22.35-1.1,5.95-1.48,8.61-1.89,12.74-.4,4.02-.4,7.73.35,11.14.77,4.4,2.27,7.33,4.87,9.74,2.29,2.13,4.94,2.78,7.95,2.2,2.81-.55,5.24-1.93,7.54-3.54,5.77-4.04,10.72-8.89,14.58-14.81,1-1.53,2-3.07,3-4.61.04.51.08,1,.13,1.53h0c.8,3.45,2.28,6.58,4.57,9.29,1.54,1.82,3.38,3.14,5.88,3.35,4.82.39,8.89-1.26,12.22-4.65,4.44-4.51,8.08-9.6,10.57-15.47.23-.55.54-1.07.81-1.6.13.05.26.1.39.15-.85,12.87-3.05,21.05-4.7,35.48h0c-.51,2.75-.93,6.64-.9,6.85v.03s-.55,3.01-.55,3.01c-.12.85-.2,1.52-.31,2.17-.47,2.76-.62,4.61-1.32,9.19h0c-.47,5.85-.83,10.79-1.03,16.65-.08,2.56.19,5.15.5,7.7.22,1.79,1.14,3.35,2.39,4.68,1.67,1.78,2.92,1.98,5.1.83,2.09-1.09,3.16-2.96,3.86-5.09,1.58-4.78,1.77-9.78,2.21-14.74.47-5.23.76-10.48,1.21-15.71.16-1.88.54-3.74.83-5.7l.95-5.27c.04-.48.04-.68.07-.88.96-6,2.43-11.89,4.08-17.74,1.22-4.33,2.15-8.77,3.69-12.98,2.22-6.08,4.75-12.06,7.39-17.97,3.4-7.62,8.37-14.22,13.99-20.33.86-.94,1.96-1.71,3.08-2.35,2.08-1.18,4.7-.02,5.63,2.14,1.54,3.57.65,6.62-.53,10.29-1.14,3.56-2.57,7.05-4.16,10.44-3.38,7.2-8.09,11.53-16.19,15.42-3.46,1.61-4.48,2.04-6.58,3.28-2.16,1.27-2.09,3.14,0,4.46,2.24,1.42,4.48,2.07,7.32,2.32,1.72.1,2.44.11,4.48,0,.16,0,.33-.02.48-.04,2.91-.36,3.9-.73,5.87-1.58,0,0,1.47-.81,1.47-.81,4.89-2.93,7.48-5.4,11.39-9.54,1.92-2.03,3.63-4.27,5.52-6.33,4.48-4.89,9.04-9.69,13.48-14.62,1.36-1.51,2.5-3.25,3.59-4.97.48-.77.77-1.73.91-2.64.22-1.51-1.24-2.82-2.68-2.33"/>
  <path class="cls-1" d="M49.05,124.94s.27,2.45,1.12,4.42c.08.19.16.36.22.51.74,1.72,1.86,3.25,3.28,4.47.32.28.67.51,1.06.65,2.45.92,3.95.06,4.61-2.7.09-.37.15-.74.22-1.1.07-1.02.15-2.04.22-3.06l-.07-3.57c-.04-.8-.09-1.59-.1-2.39-.01-1.31-.02-3.47-.07-4.78-.51-12.35-.5-24.69.22-37.02.17-2.93.58-6.7.86-8.76.12-2.95,1.78-4.47,4.2-5.69,6.01-3.03,12.22-5.48,18.66-7.42.73-.22,1.44-.48,2.13-.79,1.28-.57,2.52-1.22,3.64-2.02,1.2-.85,2.37-2.14,1.7-3.82-.64-1.62-2.24-1.83-3.79-1.85-2.67-.04-5.19.14-7.76.45-4.34.54-8.61,1.41-12.63,3.25-1.59.73-3.22,1.36-5.07,2.13,0,0-.02,0-.02-.01.1-.91.16-1.57.24-2.23.49-4.41,1.04-8.81,1.46-13.22.38-3.94.58-7.9.93-11.84.26-2.97.31-2.98,3.14-3.92.43-.14.87-.27,1.31-.38,7.67-1.88,15.09-4.47,22.33-7.61,2.7-1.01,4.3-1.78,6.37-2.57.29-.13.6-.27.89-.4,2.73-1.4,5.11-2.47,6.85-4.86,2.19-3,.87-4.69-2-5.01-1.75-.2-3.58-.22-5.31.08-3.02.52-6.02,1.23-8.96,2.09-7.79,2.29-15.59,4.48-23.66,5.64-1.17.17-2.11-.15-3.15-.46-1.69-.51-3.4-1.06-5.14-1.25-2.9-.3-5.86.86-6.06,4.78-.07,1.38-.69,2.21-2.14,2.53-2.96.66-5.62,2.12-8.17,3.69-3.02,1.86-4.91,4.51-4.85,8.24.04,2.18,1.16,3.59,3.33,4.02,1.02.2,2.1.17,3.23.25,0,0,.01,0,.01.01,0,.79-.03,1.54,0,2.28.06,1.21.73,2.04,1.76,2.58,1.88.98,3.93.67,5.46-.82.57-.55,1.08-1.17,1.62-1.76,0,0,.29-.25.39.13-1.9,8.36-1.61,16.9-2.26,25.29,0,0,0,0,0,0-2.96,1.17-5.81,2.26-8.64,3.42-1.09.45-2.19.95-3.17,1.6-1.33.89-1.97,2.56-1.52,4.09.56,1.89,1.87,3.03,3.5,3.75,1.91.84,3.92,1.12,6.01.8.97-.15,1.93-.26,3.01-.41,0,0,.01,0,.01.01.97,16.9-.3,32.11.51,50.55h0"/>
  <path class="cls-1" d="M136.7,43.48c1.3.64,2.6.38,3.47-.76.33-.43.54-.94.77-1.44,1.12-2.41,2.29-4.8,3.32-7.24.33-.77.57-1.57.76-2.28.26-.94.32-1.93.17-2.89-.25-1.63-.66-2.94-1.61-4.08-2.75-3.3-7.63-1.9-8.35,4.29.03,3.15-.18,6.24-.99,9.3-.56,2.12.55,4.17,2.45,5.1"/>
  <path class="cls-1" d="M314.5,55.7c1.2-.85,2.37-2.14,1.7-3.82-.64-1.62-2.24-1.83-3.79-1.85-2.67-.04-5.19.14-7.76.45-4.34.54-8.61,1.41-12.63,3.24-1.59.73-3.22,1.36-5.07,2.13,0,0-.02,0-.02-.01.1-.91.16-1.57.24-2.23.49-4.41,1.04-8.81,1.46-13.22.38-3.94.58-7.9.93-11.84.26-2.97.31-2.98,3.14-3.92.43-.14.87-.27,1.31-.38,7.67-1.88,15.1-4.47,22.33-7.61,2.7-1.01,4.3-1.78,6.37-2.57.3-.13.6-.27.89-.4,2.73-1.4,5.11-2.47,6.85-4.86,2.19-3,.87-4.69-1.99-5.01-1.75-.2-3.58-.22-5.31.08-3.02.52-6.02,1.23-8.96,2.09-7.79,2.29-15.59,4.48-23.66,5.64-1.17.17-2.11-.15-3.15-.46-1.69-.51-3.4-1.07-5.14-1.25-2.9-.3-5.86.86-6.06,4.78-.07,1.38-.69,2.21-2.14,2.53-2.96.66-5.62,2.12-8.17,3.69-3.03,1.86-4.91,4.51-4.85,8.24.04,2.19,1.16,3.59,3.33,4.02,1.03.2,2.1.17,3.23.25,0,0,.01,0,.01.01,0,.79-.03,1.54,0,2.28.06,1.21.73,2.04,1.76,2.58,1.88.98,3.93.67,5.47-.82.57-.55,1.08-1.17,1.62-1.76,0,0,.29-.25.39.13-1.9,8.36-1.61,16.9-2.26,25.29,0,0,0,0,0,0-2.96,1.17-5.81,2.26-8.64,3.42-1.09.45-2.19.95-3.17,1.6-1.33.89-1.97,2.56-1.51,4.09.56,1.89,1.87,3.03,3.5,3.75,1.91.84,3.92,1.12,6.01.81.96-.15,1.93-.26,3.01-.41,0,0,.01,0,.01.01.97,16.9-.3,32.11.51,50.55h0s.27,2.45,1.12,4.42c.08.19.16.36.22.51.74,1.72,1.86,3.25,3.28,4.48.32.27.67.51,1.06.65,2.45.92,3.95.06,4.61-2.7.09-.37.15-.74.21-1.11.07-1.02.15-2.04.22-3.06l-.07-3.57c-.04-.8-.09-1.59-.1-2.39-.01-1.31-.02-3.48-.07-4.78-.51-12.35-.5-24.69.22-37.02.17-2.93.58-6.7.86-8.76.12-2.95,1.78-4.47,4.2-5.69,6.01-3.03,12.23-5.48,18.66-7.42.73-.22,1.44-.48,2.13-.79,1.28-.57,2.52-1.22,3.64-2.02"/>
  <path class="cls-1" d="M546.3,59.77c-.92-.17-1.96-.04-2.86.2-2.02.54-4.39,1.54-6.45,2.58-3.99,2.01-7.75,4.46-11.75,6.46-3.49,1.75-6.84,3.76-10.2,5.76-1.06.63-1.8.72-2.85.2-4.82-2.41-9.74-4.64-14.48-7.2-2.2-1.19-3.64-3.48-1.85-5.95.96-1.33,1.88-2.71,3.05-3.84,2.5-2.42,4.45-4.49,7.76-7,1-.76,2.19-1.31,3.24-1.92.81.55,1.4,1.02,2.04,1.38,2.95,1.67,6.36.85,7.78-1.97,2.03-4.04-.52-9.71-3.42-11.17-1.92-.97-3.95-1.49-6.12-1.38-3.88.21-7.48,1.26-10.87,3.21-4.19,2.4-7.77,5.55-11.32,8.76-2.62,2.36-4.64,5.17-6.36,8.24,0,0-.21.41-.44,1.12-4.48,5.5-6.58,7.44-11.54,11.8-.32.36-.65.71-1,1.03-.29.26-.62.48-1.32,1,1.7-3.98,1.81-7.76,2.01-11.48.12-2.22-.11-4.44-.76-6.57-1.02-3.37-2.5-5.96-5.27-8.09-2.22-1.7-5.61-2.55-8.51-2.15-6.14.83-10.98,3.95-15.06,8.38-3.02,3.28-5.53,6.97-7.63,10.89-2.81,5.23-5.44,10.55-8.15,15.84-.28.55-.58,1.1-.88,1.65-.14-.05-.27-.11-.41-.17.43-2.2.99-4.38,1.27-6.6.78-6.02,1.54-12.05,2.1-18.09.18-2,.17-3.48-.5-6.08-.51-2.47-2.7-3.45-5.07-2.47-2.36.97-3.94,2.73-4.59,5.18,0,.03-.02.06-.02.09-.73,2.78-1.3,5.6-1.74,8.44-3.16,4.33-6.72,7.27-11.43,9.99-.85.49-1.79.81-3,1.34.17-.91.22-1.43.36-1.93,2.03-7.41,1.86-14.7-1.11-21.86-1.05-2.55-2.61-4.6-5.08-5.94-3.9-2.12-7.97-2.31-12.31-1.74-5.23.7-11.92,6.07-12.29,11.36-.03.42-.27.83-.46,1.39-.37-.31-.62-.54-.88-.73-1.75-1.3-3.57-1.53-5.56-.52-2.69,1.36-4,4.05-5.57,6.55-2.23,3.55-4.14,7.29-5.82,11.13-.9,2.05-1.8,4.1-2.73,6.14-.15.34-.28.68-.4,1.04v-.15c-1.29,2.76-2.63,5.48-4.1,8.12-3.58,6.42-8.33,12.02-13.99,16.76-.87.73-1.76,1.46-2.71,2.11-2.63,1.79-6.34-.03-6.41-3.21h0c-.03-.67-.08-1.34-.08-2.01.06-6.57,1.5-12.29,3.14-18.65,2.21-8.59,5.12-17,7.69-25.5.53-1.75,1.46-4.6,2.09-6.32,3.55-9.69,7.15-19.36,10.68-29.07,1.26-3.46,2.93-7.79,3.04-11.52.05-1.68-.11-2.31-.55-4.07-.3-1.48-2.26-2.46-3.74-2.53-1.19-.05-2,.03-3.09.45-1.95.75-3.84,2.65-4.83,4.5-1.41,2.64-3.07,6.31-3.96,9.14-2.83,8.9-4.62,13.87-7.71,23.56-1.72,6.38-3.74,12.41-5.72,18.72-2.17,6.89-5.4,19.16-6.06,22.35-1.1,5.95-1.48,8.61-1.89,12.74-.4,4.02-.4,7.73.35,11.14.77,4.4,2.27,7.33,4.87,9.74,2.3,2.13,4.94,2.78,7.95,2.2,2.81-.54,5.23-1.93,7.54-3.54,5.77-4.04,10.72-8.89,14.58-14.81,1.07-1.64,2.64-3.9,3.78-5.64.63,1.66,1.45,3.26,2.43,4.76.45.68.91,1.36,1.39,2.01,4.64,6.33,11.63,9.92,19.94,7.08,8.37-2.86,16.13-10.4,22.31-20.92.71-1.21,1.28-2.33,2.44-3.05,0,0,8.97-4.84,14.89-9.42.84-.65.74-.67,1.01-.88l-.87,13.22c-.85,12.87-2.7,21.88-4.35,36.3h0c-.51,2.75-.92,6.64-.9,6.85v.03s-.55,3.01-.55,3.01c-.12.85-.2,1.52-.31,2.17-.46,2.76-.62,4.6-1.32,9.19,0,0,0,0,0,0-.47,5.85-.84,10.79-1.03,16.65-.08,2.56.19,5.15.5,7.7.22,1.79,1.15,3.35,2.39,4.68,1.66,1.78,2.92,1.98,5.1.83,2.09-1.09,3.16-2.96,3.86-5.09,1.58-4.79,1.77-9.78,2.21-14.74.47-5.23.76-10.48,1.21-15.71.16-1.88.54-3.74.83-5.7l.95-5.27c.04-.48.04-.68.07-.88.96-6,2.43-11.89,4.08-17.74,1.22-4.33,2.15-8.77,3.69-12.98,2.22-6.08,4.75-12.06,7.39-17.97,3.39-7.62,8.36-14.22,13.99-20.33.86-.94,1.96-1.71,3.08-2.35,2.08-1.18,4.7-.02,5.63,2.14,1.54,3.57.65,6.62-.53,10.29-1.14,3.56-2.57,7.05-4.16,10.44-3.38,7.2-8.09,11.53-16.19,15.42-3.46,1.61-4.48,2.04-6.59,3.28-2.16,1.28-2.09,3.14,0,4.46,2.24,1.42,4.48,2.07,7.32,2.32,1.72.1,2.44.11,4.47,0,.16,0,.34-.02.5-.04,2.9-.36,3.5-.51,5.47-1.36,0,0,0,0,0,0,4.89-2.93,9.34-6.43,13.26-10.57,1.92-2.03,3.63-4.27,5.52-6.33,4.48-4.89,9.04-9.69,13.48-14.62.2-.22.38-.45.56-.67,2.03,4.42,5.42,6.97,9.49,8.9,3.14,1.48,6.48,2.51,9.71,3.79.91.36,1.79.81,2.83,1.33.45.22.51.85.1,1.15-2.72,2.01-5.17,3.96-7.81,5.61-5.88,3.69-11.22,8.01-16.25,12.76-2.53,2.39-4.42,5.18-5.68,8.42-1.84,4.75-1.66,9.46.27,14.14,0,0,0,0,0,.01.46,1.1,1.23,2.02,2.2,2.7,2.01,1.4,6.1,3.51,12.47,3.48,8.84-.07,15.82-1.79,21.22-4.93.46-.29.92-.57,1.38-.86,7.96-4.99,13.11-12.04,15.32-21.17,1.45-5.96.65-11.67-2.5-16.99-1.01-1.69-2.04-3.37-3.11-5.13.27-.22.5-.48.78-.64,6.38-3.68,12.77-7.35,19.16-11.02,1.42-.82,2.87-1.59,4.24-2.48,1.17-.76,2.08-1.8,2.36-3.27.26-1.33-.49-2.58-1.83-2.84M373.65,93.45c-2.12,1.79-4.69,3.25-7.73,2.57-2.93-.66-5.17-3.44-5.57-5.84-.83-4.98.07-9.62,1.96-14.17,1.67-4.03,3.64-7.91,6.17-11.95.57,1.55,1.06,2.76,1.45,4.01,1.49,4.74,4.42,8.44,8.4,11.28,1.47,1.05,3.26,1.64,5.07,2.52-3.23,4.8-5.81,8.25-9.76,11.57M391.87,58.97c-.69,4.3-1.2,5.69-2.04,9.96-.11.58-.51,2.45-.99,3.87-.18.54-.78.81-1.31.61-2.43-.94-3.99-2.75-5.26-4.85-1.22-2.01-1.83-4.21-1.85-6.61-.04-3.72.31-7.33,1.68-10.83.65-1.66,1.05-2.83,2.45-3.88,1.18-.88,2.9-1.02,4.28-.29,1.16.61,2.23,1.6,2.99,3.24,1.49,3.22.72,4.65.05,8.78M516.76,97.36c-2.46,9.88-8.92,16.51-17.67,21.11-3.48,1.83-7.31,2.11-11.14,1.14-3.74-.95-6.77-4.88-4.24-9.85,1.03-2.04,1.98-3.24,3.47-5,1.86-2.18,4.83-4.41,7-6.26,3.6-3.07,7.48-5.7,11.36-8.35,2.08-1.42,4.22-2.76,6.37-4.14.58-.37,1.32-.4,1.9-.04,2.39,1.5,2.97,4.02,3.31,6.55.21,1.57.03,3.29-.36,4.84"/>
  <path class="cls-1" d="M50.17,129.36c-.71,0-1.45,0-2.18,0-11.28-.09-22.57-.15-33.85-.28-3.55-.04-7.11-.29-10.66-.35-1.38-.02-2.56-.33-3.48-1.53.77-1.41,2.18-1.57,3.61-1.62,4.85-.17,9.7-.38,14.56-.44,9.5-.11,19.01-.13,28.51-.19.74,0,1.47,0,2.38,0l10.66-.37h93.37l13.43-.28c35.9.03,71.74-.57,107.72-.45l11.52-.14h122.25l12.78.09c18.25.2,36.26.39,54.54.59l34.95.19c.53,0,.96,0,1.39,0,22.98-.11,45.95-.23,68.93-.34.48,0,.96-.03,1.44.02,1.36.13,2.29,1,2.34,2.14.05,1.21-.93,2.16-2.39,2.3-.41.04-.82.01-1.23.01-22.57-.03-45.13-.05-67.7-.08-1.22,0-2.43-.02-3.65-.04l-33.03.14c-18.04.25-36.09.52-54.14.77-.8.01-1.61,0-2.64,0l-12.39.3h-121.65l-9.95.19c-36.62-.14-73.24-.28-110.04-.43h-13.43s-92.32,0-92.32,0l-9.63-.21Z"/>
  <polygon class="cls-1" points="225.83 188.76 225.83 154.76 249.14 154.76 249.14 160.51 232.69 160.51 232.69 168.56 246.89 168.56 246.89 174.31 232.69 174.31 232.69 188.76 225.83 188.76"/>
  <rect class="cls-1" x="261.43" y="154.76" width="6.86" height="34"/>
  <polygon class="cls-1" points="281.86 188.76 281.86 155.03 288.73 155.03 288.73 183.03 305.8 183.03 305.8 188.76 281.86 188.76"/>
  <polygon class="cls-1" points="317.44 188.76 317.44 154.76 327.71 154.76 333.88 177.95 339.98 154.76 350.28 154.76 350.28 188.76 343.9 188.76 343.9 161.99 337.15 188.76 330.54 188.76 323.81 161.99 323.81 188.76 317.44 188.76"/>
  <path class="cls-1" d="M557.89,119.01c-9.19,0-16.67-7.48-16.67-16.67s7.48-16.67,16.67-16.67,16.67,7.48,16.67,16.67-7.48,16.67-16.67,16.67M557.89,86.66c-8.65,0-15.68,7.03-15.68,15.68s7.03,15.68,15.68,15.68,15.68-7.03,15.68-15.68-7.03-15.68-15.68-15.68"/>
  <path class="cls-1" d="M555.11,97.22c-.77-.89-1.49-1.63-2.08-2.02,0,0-3.53-2.7-6.23-1.02-2.35,1.46-1.71,5.81,1.67,9.15.1.1.27.03.27-.11v-5.74h6.25c.13,0,.21-.16.12-.26"/>
  <path class="cls-1" d="M568.99,94.18c-2.7-1.68-6.23,1.02-6.23,1.02-.59.39-1.32,1.13-2.08,2.02-.09.1-.02.26.12.26h6.25v5.74c0,.14.17.21.27.11,3.38-3.34,4.03-7.68,1.67-9.15"/>
  <path class="cls-1" d="M566.01,98.36h-6.2s-.1.03-.12.06c-.62.79-1.24,1.62-1.8,2.4-.56-.78-1.18-1.61-1.8-2.4-.03-.03-.08-.06-.12-.06h-6.2c-.09,0-.16.07-.16.16v5.61c0,.12.08.27.17.34.1.08.21.16.32.24,0,0,1.03.56,2.39,1.26-.9.72-1.78,1.67-2.29,2.85-1.36,3.18.7,4.08.7,4.08,3.34,1.2,6.54-3.43,6.97-4.25.43.82,3.64,5.45,6.97,4.25,0,0,2.06-.9.7-4.08-.51-1.19-1.39-2.13-2.29-2.85,1.36-.71,2.39-1.26,2.39-1.26.11-.08.22-.16.32-.24.09-.07.17-.23.17-.34v-5.61c0-.09-.07-.16-.16-.16M549.88,100.62v-.88h.59l-.59-.69v-.18h.43l.74.87h.32l-.66-.78s-.04-.06-.05-.09h.54l.74.87h.32l-.66-.78s-.04-.06-.05-.09h.54l.74.87h.18c.24,0,.44.2.44.44s-.2.44-.44.44h-3.15ZM565.91,99.04l-.59.69h.59v.88h-3.15c-.24,0-.44-.2-.44-.44s.2-.44.44-.44h.18l.74-.87h.54s-.02.07-.05.09l-.66.78h.32l.74-.87h.54s-.02.07-.05.09l-.66.78h.32l.74-.87h.43v.18Z"/>
</svg>